<svg xmlns="http://www.w3.org/2000/svg" xmlns:xlink="http://www.w3.org/1999/xlink" width="124" height="90" viewBox="0 0 124 90">
  <defs>
    <clipPath id="clip-aso">
      <rect width="124" height="90"/>
    </clipPath>
  </defs>
  <g id="aso" clip-path="url(#clip-aso)">
    <rect width="124" height="90" fill="rgba(255,255,255,0)"/>
    <g id="aso-2" data-name="aso" transform="translate(0.5)">
      <path id="Path_59" data-name="Path 59" d="M1594.513,555.495V571.75a5.327,5.327,0,0,1-5.4,5.25h-43.2a5.327,5.327,0,0,1-5.4-5.25v-73.5a5.327,5.327,0,0,1,5.4-5.25h43.2a5.327,5.327,0,0,1,5.4,5.25v22.2" transform="translate(-1514.013 -490)" fill="none" stroke="#1f9cd8" stroke-linecap="round" stroke-linejoin="round" stroke-width="3"/>
      <line id="Line_14" data-name="Line 14" x2="10" transform="translate(48.5 8.272)" fill="none" stroke="#1f9cd8" stroke-linecap="round" stroke-linejoin="round" stroke-width="3"/>
      <g id="Group_64" data-name="Group 64" transform="translate(-0.25 -0.01)">
        <path id="Path_60" data-name="Path 60" d="M1555.733,552.977l19.658-19.931,13.1,13.288,19.658-19.931" transform="translate(-1512.483 -486.968)" fill="none" stroke="#1f9cd8" stroke-linecap="round" stroke-linejoin="round" stroke-width="3"/>
        <path id="Path_61" data-name="Path 61" d="M1606.443,525.1v9.243M1597.2,525.1h9.244" transform="translate(-1509.193 -487.094)" fill="none" stroke="#1f9cd8" stroke-linecap="round" stroke-linejoin="round" stroke-width="3"/>
      </g>
      <g id="Group_63" data-name="Group 63" transform="translate(5.391 -0.775)">
        <circle id="Ellipse_8" data-name="Ellipse 8" cx="12" cy="12" r="12" transform="translate(36.609 18.775)" fill="none" stroke="#1f9cd8" stroke-linecap="round" stroke-linejoin="round" stroke-width="3"/>
        <path id="Path_74" data-name="Path 74" d="M1561.09,507.46v11.973h11.973" transform="translate(-1512.454 -488.685)" fill="none" stroke="#1f9cd8" stroke-linecap="round" stroke-linejoin="round" stroke-width="3"/>
      </g>
      <g id="Ellipse_9" data-name="Ellipse 9" transform="translate(49 71)" fill="none" stroke="#1f9cd8" stroke-width="3">
        <circle cx="5" cy="5" r="5" stroke="none"/>
        <circle cx="5" cy="5" r="3.5" fill="none"/>
      </g>
    </g>
  </g>
</svg>
