<svg xmlns="http://www.w3.org/2000/svg" xmlns:xlink="http://www.w3.org/1999/xlink" width="124" height="90" viewBox="0 0 124 90">
  <defs>
    <clipPath id="clip-c-w">
      <rect width="124" height="90"/>
    </clipPath>
  </defs>
  <g id="c-w" clip-path="url(#clip-c-w)">
    <rect width="124" height="90" fill="rgba(255,255,255,0)"/>
    <g id="c-w-2" data-name="c-w" transform="translate(-295 -1102)" style="isolation: isolate">
      <g id="Group_14" data-name="Group 14" transform="translate(360.793 1134.83)">
        <path id="Path_52" data-name="Path 52" d="M285.91,551.456H296.4l27.542-27.542a7.419,7.419,0,0,0-10.492-10.493L285.91,540.964v10.493" transform="translate(-285.91 -511.248)" fill="none" stroke="#1f9cd8" stroke-linecap="round" stroke-linejoin="round" stroke-width="3"/>
        <line id="Line_3" data-name="Line 3" x2="10.492" y2="10.492" transform="translate(24.919 4.796)" fill="none" stroke="#1f9cd8" stroke-linecap="round" stroke-linejoin="round" stroke-width="3"/>
      </g>
      <path id="Path_53" data-name="Path 53" d="M301.969,551.361v4.029a9.529,9.529,0,0,1-9.5,9.556h-47.51a9.53,9.53,0,0,1-9.5-9.556V488.5a9.53,9.53,0,0,1,9.5-9.556h47.51a9.529,9.529,0,0,1,9.5,9.556v24.614" transform="translate(77.545 625.054)" fill="none" stroke="#1f9cd8" stroke-linecap="round" stroke-linejoin="round" stroke-width="3"/>
      <line id="Line_4" data-name="Line 4" x2="28.68" transform="translate(331.99 1123.111)" fill="none" stroke="#1f9cd8" stroke-linecap="round" stroke-linejoin="round" stroke-width="3"/>
      <line id="Line_5" data-name="Line 5" x2="28.68" transform="translate(331.99 1142.222)" fill="none" stroke="#1f9cd8" stroke-linecap="round" stroke-linejoin="round" stroke-width="3"/>
      <line id="Line_6" data-name="Line 6" x2="19.12" transform="translate(332.008 1161.333)" fill="none" stroke="#1f9cd8" stroke-linecap="round" stroke-linejoin="round" stroke-width="3"/>
    </g>
  </g>
</svg>
