<svg xmlns="http://www.w3.org/2000/svg" xmlns:xlink="http://www.w3.org/1999/xlink" width="184" height="55" viewBox="0 0 184 55">
  <defs>
    <linearGradient id="linear-gradient" x1="0.5" y1="0.012" x2="0.5" y2="0.994" gradientUnits="objectBoundingBox">
      <stop offset="0" stop-color="#a9dde9"/>
      <stop offset="1" stop-color="#0cbed8"/>
    </linearGradient>
  </defs>
  <g id="Dupli" transform="translate(-676 -180)">
    <rect id="Rectangle_51" data-name="Rectangle 51" width="184" height="55" transform="translate(676 180)" fill="#b4b4b4" opacity="0"/>
    <g id="Group_52" data-name="Group 52" transform="translate(676 193)">
      <path id="Rectangle_52" data-name="Rectangle 52" d="M6.171,0H14.4a13.72,13.72,0,0,1,13.72,13.72v0A13.72,13.72,0,0,1,14.4,27.441H6.17A6.17,6.17,0,0,1,0,21.271V6.171A6.171,6.171,0,0,1,6.171,0Z" transform="translate(0)" fill="url(#linear-gradient)"/>
      <path id="Path_21" data-name="Path 21" d="M159.923,278.417a6.009,6.009,0,1,1,0-4.406l3.844-1.385a10.092,10.092,0,1,0,0,7.174Z" transform="translate(-135.853 -262.492)" fill="#fff"/>
      <g id="Group_52-2" data-name="Group 52" transform="translate(36.056 3.635)">
        <path id="Path_22" data-name="Path 22" d="M214.219,266.68q4.931.029,7.643,2.755a10.25,10.25,0,0,1,0,14.48q-2.713,2.713-7.643,2.741h-3.7V266.68Zm-2.571,1.173V285.5H214.2a9.369,9.369,0,0,0,6.8-2.4,9.107,9.107,0,0,0,0-12.856,9.4,9.4,0,0,0-6.8-2.388Z" transform="translate(-210.517 -266.44)" fill="#6d6d6d"/>
        <path id="Path_23" data-name="Path 23" d="M252.932,296.618a4.945,4.945,0,0,1-3.659-1.356,4.8,4.8,0,0,1-1.4-3.433v-7.657H249v7.558a3.574,3.574,0,0,0,1.13,2.656,3.777,3.777,0,0,0,2.783,1.116,3.677,3.677,0,0,0,2.677-1.109,3.609,3.609,0,0,0,1.123-2.663v-7.558h1.13v7.657a4.711,4.711,0,0,1-4.916,4.789Z" transform="translate(-231.429 -276.232)" fill="#6d6d6d"/>
        <path id="Path_24" data-name="Path 24" d="M276.277,282.82h1.13v1.723a7.1,7.1,0,0,1,.707-.819,6.866,6.866,0,1,1,0,9.691,7.066,7.066,0,0,1-.707-.819v7.163h-1.13Zm1.13,4.591v2.345a5.326,5.326,0,0,0,1.54,2.826,5.672,5.672,0,1,0,0-8.01A5.4,5.4,0,0,0,277.407,287.411Z" transform="translate(-247.329 -274.866)" fill="#6d6d6d"/>
        <path id="Path_25" data-name="Path 25" d="M313.608,266.68v19.977h-1.13V266.68Z" transform="translate(-267.595 -266.44)" fill="#6d6d6d"/>
        <path id="Path_26" data-name="Path 26" d="M323.025,274.676a1.051,1.051,0,0,1,.332.777,1.121,1.121,0,0,1-1.116,1.13,1.1,1.1,0,0,1-.8-.325,1.081,1.081,0,0,1-.332-.806,1.049,1.049,0,0,1,.332-.777,1.1,1.1,0,0,1,.8-.325A1.085,1.085,0,0,1,323.025,274.676Zm-.233,4.012v12.263h-1.116V278.688Z" transform="translate(-272.427 -270.734)" fill="#6d6d6d"/>
        <path id="Path_27" data-name="Path 27" d="M363.674,283.173l.862.763a10.236,10.236,0,1,1,0-15.131l-.862.763a9.077,9.077,0,1,0,0,13.6Z" transform="translate(-287.159 -266.135)" fill="#6d6d6d"/>
        <path id="Path_28" data-name="Path 28" d="M391.3,266.68h1.13v8.35a5.092,5.092,0,0,1,6.944-.007,4.8,4.8,0,0,1,1.406,3.426v8.208h-1.13v-8.1a3.591,3.591,0,0,0-1.13-2.67,3.8,3.8,0,0,0-5.34-.014,3.373,3.373,0,0,0-.749,1.031v9.748H391.3Z" transform="translate(-311.718 -266.44)" fill="#6d6d6d"/>
        <path id="Path_29" data-name="Path 29" d="M418.749,287.931a4.506,4.506,0,0,0-.042.636,5.664,5.664,0,0,0,9.677,3.984,7.982,7.982,0,0,0,.537-.593l1.2.424a6.009,6.009,0,0,1-.89,1.017,6.852,6.852,0,1,1,0-9.691A5.8,5.8,0,0,1,431,287.931Zm.212-1.145h10.765a5.323,5.323,0,0,0-1.342-2.232,5.662,5.662,0,0,0-8.024,0A5.763,5.763,0,0,0,418.961,286.786Z" transform="translate(-326.397 -274.848)" fill="#6d6d6d"/>
        <path id="Path_30" data-name="Path 30" d="M462.22,292.112l1.187.438a7.631,7.631,0,0,1-.735.847,6.852,6.852,0,1,1,0-9.691,7.626,7.626,0,0,1,.735.847l-1.187.438q-.184-.226-.4-.452a5.672,5.672,0,1,0,0,8.01A5.658,5.658,0,0,0,462.22,292.112Z" transform="translate(-345.117 -274.848)" fill="#6d6d6d"/>
        <path id="Path_31" data-name="Path 31" d="M490.057,277.574l-3.024,3.743,4.818,8.519h-1.384l-4.168-7.615-1.088,1.356v6.259h-1.13V272.361h1.13v9.423l3.4-4.21Z" transform="translate(-363.658 -269.62)" fill="#6d6d6d"/>
        <path id="Path_32" data-name="Path 32" d="M503.026,287.931a4.511,4.511,0,0,0-.042.636,5.664,5.664,0,0,0,9.677,3.984q.282-.283.537-.593l1.2.424a6.007,6.007,0,0,1-.89,1.017,6.852,6.852,0,1,1,0-9.691,5.792,5.792,0,0,1,1.766,4.224Zm.212-1.145H514a5.327,5.327,0,0,0-1.342-2.232,5.662,5.662,0,0,0-8.024,0A5.753,5.753,0,0,0,503.238,286.786Z" transform="translate(-373.575 -274.848)" fill="#6d6d6d"/>
        <path id="Path_33" data-name="Path 33" d="M540.688,285.067a4.047,4.047,0,0,0-2.359,1.526,4.154,4.154,0,0,0-1.158,2.713v7.036h-1.13V284.078h1.13v2.656a4.875,4.875,0,0,1,2.9-2.755Z" transform="translate(-392.744 -276.124)" fill="#6d6d6d"/>
      </g>
    </g>
  </g>
</svg>
