<svg xmlns="http://www.w3.org/2000/svg" xmlns:xlink="http://www.w3.org/1999/xlink" width="124" height="90" viewBox="0 0 124 90">
  <defs>
    <clipPath id="clip-g-d">
      <rect width="124" height="90"/>
    </clipPath>
  </defs>
  <g id="g-d" clip-path="url(#clip-g-d)">
    <rect width="124" height="90" fill="rgba(255,255,255,0)"/>
    <g id="g-d-2" data-name="g-d" transform="translate(-3294 -1597)" style="isolation: isolate">
      <line id="Line_22" data-name="Line 22" x2="120" transform="translate(3296 1685)" fill="none" stroke="#1f9cd8" stroke-linecap="round" stroke-linejoin="round" stroke-width="3"/>
      <path id="Path_64" data-name="Path 64" d="M292.663,238.3H236.376a6.657,6.657,0,0,1-6.64-6.675V178.215a6.658,6.658,0,0,1,6.64-6.676h79.671a6.658,6.658,0,0,1,6.639,6.676V208.2" transform="translate(3079.615 1427.461)" fill="none" stroke="#1f9cd8" stroke-linecap="round" stroke-linejoin="round" stroke-width="3"/>
      <g id="Group_26" data-name="Group 26" transform="translate(3330.729 1614.795)">
        <rect id="Rectangle_7" data-name="Rectangle 7" width="9.141" height="9.141" rx="2.445" transform="translate(2.285 18.283)" fill="none" stroke="#1f9cd8" stroke-linecap="round" stroke-linejoin="round" stroke-width="3"/>
        <rect id="Rectangle_8" data-name="Rectangle 8" width="9.141" height="9.141" rx="2.445" transform="translate(34.28 18.283)" fill="none" stroke="#1f9cd8" stroke-linecap="round" stroke-linejoin="round" stroke-width="3"/>
        <rect id="Rectangle_9" data-name="Rectangle 9" width="9.141" height="9.141" rx="2.445" transform="translate(18.283)" fill="none" stroke="#1f9cd8" stroke-linecap="round" stroke-linejoin="round" stroke-width="3"/>
        <path id="Path_65" data-name="Path 65" d="M271.623,194.775A13.711,13.711,0,0,0,260.2,207.344" transform="translate(-253.341 -189.061)" fill="none" stroke="#1f9cd8" stroke-linecap="round" stroke-linejoin="round" stroke-width="3"/>
        <path id="Path_66" data-name="Path 66" d="M282.2,194.775a13.711,13.711,0,0,1,11.427,12.569" transform="translate(-254.775 -189.061)" fill="none" stroke="#1f9cd8" stroke-linecap="round" stroke-linejoin="round" stroke-width="3"/>
        <line id="Line_23" data-name="Line 23" x1="13.712" transform="translate(4.571 4.571)" fill="none" stroke="#1f9cd8" stroke-linecap="round" stroke-linejoin="round" stroke-width="3"/>
        <line id="Line_24" data-name="Line 24" x1="13.712" transform="translate(27.424 4.571)" fill="none" stroke="#1f9cd8" stroke-linecap="round" stroke-linejoin="round" stroke-width="3"/>
        <circle id="Ellipse_4" data-name="Ellipse 4" cx="2.285" cy="2.285" r="2.285" transform="translate(0 2.285)" fill="none" stroke="#1f9cd8" stroke-linecap="round" stroke-linejoin="round" stroke-width="3"/>
        <circle id="Ellipse_5" data-name="Ellipse 5" cx="2.285" cy="2.285" r="2.285" transform="translate(41.136 2.285)" fill="none" stroke="#1f9cd8" stroke-linecap="round" stroke-linejoin="round" stroke-width="3"/>
      </g>
      <rect id="Rectangle_10" data-name="Rectangle 10" width="20.565" height="30.848" rx="10.283" transform="translate(3381.29 1638.835)" fill="none" stroke="#1f9cd8" stroke-linecap="round" stroke-linejoin="round" stroke-width="3"/>
      <line id="Line_25" data-name="Line 25" y2="6.855" transform="translate(3391.675 1645.793)" fill="none" stroke="#1f9cd8" stroke-linecap="round" stroke-linejoin="round" stroke-width="3"/>
    </g>
  </g>
</svg>
