<svg xmlns="http://www.w3.org/2000/svg" xmlns:xlink="http://www.w3.org/1999/xlink" width="124" height="90" viewBox="0 0 124 90">
  <defs>
    <clipPath id="clip-game-d">
      <rect width="124" height="90"/>
    </clipPath>
  </defs>
  <g id="game-d" clip-path="url(#clip-game-d)">
    <rect width="124" height="90" fill="rgba(255,255,255,0)"/>
    <g id="game-d-2" data-name="game-d" transform="translate(-288.5 -650.5)" style="isolation: isolate">
      <g id="Group_23" data-name="Group 23" transform="translate(303.5 684.507)">
        <path id="Path_62" data-name="Path 62" d="M300.016,806.919h1.813a15.687,15.687,0,0,1,15.524,13.749c.017.138-.293-1.569,4.424,24.17a13.664,13.664,0,0,1-5.591,13.6h0a13.375,13.375,0,0,1-17.082-1.313,14.044,14.044,0,0,1-4.274-10.064,6.276,6.276,0,0,0-6.258-6.239H261.453a6.276,6.276,0,0,0-6.258,6.239,13.595,13.595,0,0,1-27.183.581c-.057-1.772-.119-.861,4.633-26.794.011-.058.02-.118.027-.178A15.686,15.686,0,0,1,248.2,806.919h5.67" transform="translate(-228 -806.919)" fill="none" stroke="#1f9cd8" stroke-linecap="round" stroke-linejoin="round" stroke-width="3"/>
      </g>
      <line id="Line_16" data-name="Line 16" y2="19.731" transform="translate(327.149 693.095)" fill="none" stroke="#1f9cd8" stroke-linecap="round" stroke-linejoin="round" stroke-width="3"/>
      <line id="Line_17" data-name="Line 17" x1="19.731" transform="translate(317.359 702.962)" fill="none" stroke="#1f9cd8" stroke-linecap="round" stroke-linejoin="round" stroke-width="3"/>
      <line id="Line_18" data-name="Line 18" y2="0.01" transform="translate(373.918 710.496)" fill="none" stroke="#1f9cd8" stroke-linecap="round" stroke-linejoin="round" stroke-width="3"/>
      <line id="Line_19" data-name="Line 19" y2="0.01" transform="translate(373.918 695.484)" fill="none" stroke="#1f9cd8" stroke-linecap="round" stroke-linejoin="round" stroke-width="3"/>
      <line id="Line_20" data-name="Line 20" y2="0.01" transform="translate(381.355 703.199)" fill="none" stroke="#1f9cd8" stroke-linecap="round" stroke-linejoin="round" stroke-width="3"/>
      <line id="Line_21" data-name="Line 21" y2="0.01" transform="translate(366.429 703.199)" fill="none" stroke="#1f9cd8" stroke-linecap="round" stroke-linejoin="round" stroke-width="3"/>
      <g id="Group_24" data-name="Group 24" transform="translate(330.744 652.5)">
        <path id="Path_63" data-name="Path 63" d="M278.361,771.63a4.124,4.124,0,0,1,8.014,0,4.123,4.123,0,0,0,6.155,2.55,4.126,4.126,0,0,1,5.669,5.669A4.124,4.124,0,0,0,300.747,786a4.123,4.123,0,0,1,0,8.014,4.123,4.123,0,0,0-2.55,6.155,4.126,4.126,0,0,1-5.669,5.669,4.123,4.123,0,0,0-6.152,2.547,4.124,4.124,0,0,1-8.014,0,4.122,4.122,0,0,0-6.155-2.55,4.126,4.126,0,0,1-5.669-5.669,4.123,4.123,0,0,0-2.548-6.152,4.123,4.123,0,0,1,0-8.014,4.123,4.123,0,0,0,2.55-6.155,4.126,4.126,0,0,1,5.669-5.669A4.12,4.12,0,0,0,278.361,771.63Z" transform="translate(-260.84 -768.48)" fill="none" stroke="#1f9cd8" stroke-linecap="round" stroke-linejoin="round" stroke-width="3"/>
        <circle id="Ellipse_3" data-name="Ellipse 3" cx="7.176" cy="7.176" r="7.176" transform="translate(14.352 14.352)" fill="none" stroke="#1f9cd8" stroke-linecap="round" stroke-linejoin="round" stroke-width="3"/>
      </g>
    </g>
  </g>
</svg>
