<svg xmlns="http://www.w3.org/2000/svg" xmlns:xlink="http://www.w3.org/1999/xlink" width="124" height="90" viewBox="0 0 124 90">
  <defs>
    <clipPath id="clip-k-d-p">
      <rect width="124" height="90"/>
    </clipPath>
  </defs>
  <g id="k-d-p" clip-path="url(#clip-k-d-p)">
    <rect width="124" height="90" fill="rgba(255,255,255,0)"/>
    <g id="k-d-p-2" data-name="k-d-p" transform="translate(-1491 -1080)" style="isolation: isolate">
      <path id="Path_67" data-name="Path 67" d="M775.474,226.265c-.977-1.274-1.674-2.2-2.1-2.778a11.137,11.137,0,0,1-1.318-2.829,13,13,0,0,1-.688-4.324V194.278c0-.246-.026-1.02-.094-2.328A12.38,12.38,0,0,0,771,189.4c-.119-.4-.3-1.113-.544-2.141a9.493,9.493,0,0,0-.824-2.37,16.782,16.782,0,0,0-1.224-1.869,17.735,17.735,0,0,0-1.692-1.963q-5.839-5.378-16.226-5.378h-2.286a28.675,28.675,0,0,0-14.178,4.375q-6.056,3.925-7.607,12.03a2.4,2.4,0,0,0-.093.637c0,.85.518,1.4,1.547,1.64l10.489,1.274a2.3,2.3,0,0,0,1.819-2.09,7.513,7.513,0,0,1,2.83-4.562,10.069,10.069,0,0,1,5.194-1.912h.731q4.105,0,6.018,2.736c.85,1.334,1.275,3.951,1.275,7.833V199.2c-3.706.306-6.375.544-8.024.731a45.486,45.486,0,0,0-12.121,3.008,19.1,19.1,0,0,0-8.483,6.737,18.421,18.421,0,0,0-3.1,10.756q0,7.927,4.513,12.26a15.983,15.983,0,0,0,11.534,4.333,27.334,27.334,0,0,0,7.659-.918q4.934-1.364,10.03-6.924c.246.306.671.9,1.283,1.776a18.608,18.608,0,0,0,1.318,1.776c.272.306.731.79,1.368,1.461a30.648,30.648,0,0,0,2.236,2.1,2.53,2.53,0,0,0,2.643-.187q.638-.548,8.2-7.1a1.565,1.565,0,0,0,.731-1.283A2.691,2.691,0,0,0,775.474,226.265ZM756.23,210.037c0,1.946-.009,3.347-.042,4.2a17.079,17.079,0,0,1-.544,3.322,14.7,14.7,0,0,1-1.5,3.789,9.291,9.291,0,0,1-5.933,4.919,3.86,3.86,0,0,0-.68.093,4.657,4.657,0,0,1-.774.085,5.892,5.892,0,0,1-4.785-2.141,8.6,8.6,0,0,1-1.785-5.692q0-7.837,8.024-10.119a33.372,33.372,0,0,1,8.024-.731Z" transform="translate(802.482 906.32)" fill="none" stroke="#1f9cd8" stroke-linecap="round" stroke-linejoin="round" stroke-width="3"/>
      <g id="Group_27" data-name="Group 27" transform="translate(1514 1147.861)">
        <path id="Path_68" data-name="Path 68" d="M781.75,259.479a51.3,51.3,0,0,1-72.529,0l0,0" transform="translate(-709.22 -254.357)" fill="none" stroke="#1f9cd8" stroke-linecap="round" stroke-linejoin="round" stroke-width="3"/>
        <line id="Line_26" data-name="Line 26" y2="9.446" transform="translate(78)" fill="none" stroke="#1f9cd8" stroke-linecap="round" stroke-linejoin="round" stroke-width="3"/>
        <line id="Line_27" data-name="Line 27" x2="9.446" transform="translate(68.554)" fill="none" stroke="#1f9cd8" stroke-linecap="round" stroke-linejoin="round" stroke-width="3"/>
      </g>
    </g>
  </g>
</svg>
