<svg xmlns="http://www.w3.org/2000/svg" width="184" height="55" viewBox="0 0 184 55">
  <g id="logo_maker" data-name="logo maker" transform="translate(-1061 -134)">
    <rect id="Rectangle_51" data-name="Rectangle 51" width="184" height="55" transform="translate(1061 134)" fill="#6d6d6d" opacity="0"/>
    <g id="Group_68" data-name="Group 68" transform="translate(938.788 -64.715)">
      <g id="Group_66" data-name="Group 66" transform="translate(176.212 198.715)">
        <path id="Path_54" data-name="Path 54" d="M202.144,239.2H183.332V199.747a.92.92,0,0,0-1.007-1.033.954.954,0,0,0-.7.321,1,1,0,0,0-.309.711V239.2h-3.092V199.958a.934.934,0,0,0-.3-.689,1,1,0,0,0-1.408,0,.934.934,0,0,0-.3.69v40.271a.882.882,0,0,0,.975.981h24.958a1.007,1.007,0,1,0,0-2.014Z" transform="translate(-176.212 -198.715)"/>
        <path id="Path_55" data-name="Path 55" d="M332.347,261.713q-1.5-2.132-3.422-4.844c-1.312-1.85-2.649-3.728-3.975-5.581-1.3-1.82-2.675-3.724-4.081-5.66-1.338-1.841-2.577-3.559-3.684-5.105s-2.059-2.859-2.844-3.924c-.8-1.084-1.305-1.778-1.545-2.12a.848.848,0,0,0-.771-.458.869.869,0,0,0-.77.4,1.434,1.434,0,0,0-.233.788v31.374a.919.919,0,0,0,.316.692.993.993,0,0,0,.691.288,1.052,1.052,0,0,0,.683-.254.9.9,0,0,0,.324-.726V238.232l20.812,29.2a.9.9,0,0,0,.791.4,1.038,1.038,0,0,0,.707-.286.91.91,0,0,0,.326-.694c0-.09,0-.213-.926-1.631C334.139,264.292,333.331,263.113,332.347,261.713Z" transform="translate(-277.858 -225.336)"/>
        <path id="Path_56" data-name="Path 56" d="M352.944,198.962a1.211,1.211,0,0,0-.718-.247.85.85,0,0,0-.735.4l-19.112,26.84L313.223,199.33a.89.89,0,0,0-.821-.457.881.881,0,0,0-.7.3,1.011,1.011,0,0,0-.249.677,1.038,1.038,0,0,0,.194.638l28.949,40.317a.9.9,0,0,0,.791.4,1.038,1.038,0,0,0,.707-.286.964.964,0,0,0,.326-.747c0-.139-.077-.382-.638-1.213-.392-.579-.883-1.294-1.5-2.186-.6-.862-1.273-1.785-2.005-2.744s-1.434-1.9-2.077-2.787-1.22-1.676-1.711-2.344c-.422-.572-.715-.99-.874-1.246l17.742-24.839v37.411a.993.993,0,0,0,.259.679.859.859,0,0,0,.669.3,1,1,0,0,0,.981-.981V200.012a.912.912,0,0,0,.053-.369A.828.828,0,0,0,352.944,198.962Z" transform="translate(-278.18 -198.715)"/>
      </g>
      <g id="Group_67" data-name="Group 67" transform="translate(176.212 248.204)">
        <path id="Path_57" data-name="Path 57" d="M176.212,405.579v-5.353h.875v4.6h2.266v.751Z" transform="translate(-176.212 -400.142)"/>
        <path id="Path_58" data-name="Path 58" d="M208.871,402.638a2.929,2.929,0,0,1-.654,2.032,2.747,2.747,0,0,1-3.713.005,2.947,2.947,0,0,1-.65-2.045,2.9,2.9,0,0,1,.654-2.036,2.409,2.409,0,0,1,1.866-.71,2.36,2.36,0,0,1,1.846.721A2.926,2.926,0,0,1,208.871,402.638Zm-4.086,0a2.4,2.4,0,0,0,.4,1.5,1.624,1.624,0,0,0,2.36.006,3.041,3.041,0,0,0,0-3,1.392,1.392,0,0,0-1.173-.509,1.421,1.421,0,0,0-1.188.509A2.377,2.377,0,0,0,204.784,402.638Z" transform="translate(-197.054 -399.884)"/>
        <path id="Path_59" data-name="Path 59" d="M242.5,402.441h1.97v2.688a5.708,5.708,0,0,1-.928.223,6.563,6.563,0,0,1-.961.066,2.414,2.414,0,0,1-1.875-.72,2.9,2.9,0,0,1-.659-2.03,2.708,2.708,0,0,1,.743-2.023,2.8,2.8,0,0,1,2.047-.73,3.982,3.982,0,0,1,1.589.322l-.307.729a3.092,3.092,0,0,0-1.3-.3,1.755,1.755,0,0,0-1.355.538,2.083,2.083,0,0,0-.5,1.472,2.2,2.2,0,0,0,.448,1.492,1.627,1.627,0,0,0,1.291.511,4.237,4.237,0,0,0,.908-.106v-1.381H242.5Z" transform="translate(-224.339 -399.907)"/>
        <path id="Path_60" data-name="Path 60" d="M279.385,402.638a2.929,2.929,0,0,1-.654,2.032,2.747,2.747,0,0,1-3.713.005,2.947,2.947,0,0,1-.65-2.045,2.9,2.9,0,0,1,.654-2.036,2.409,2.409,0,0,1,1.866-.71,2.36,2.36,0,0,1,1.846.721A2.926,2.926,0,0,1,279.385,402.638Zm-4.086,0a2.4,2.4,0,0,0,.4,1.5,1.624,1.624,0,0,0,2.36.006,3.041,3.041,0,0,0,0-3,1.392,1.392,0,0,0-1.173-.509,1.421,1.421,0,0,0-1.188.509A2.377,2.377,0,0,0,275.3,402.638Z" transform="translate(-250.221 -399.884)"/>
        <path id="Path_61" data-name="Path 61" d="M334.053,405.579l-1.553-4.471h-.029q.062,1,.062,1.868v2.6h-.795v-5.353h1.234l1.487,4.259h.022l1.531-4.259h1.238v5.353h-.842v-2.647q0-.4.02-1.04t.035-.776h-.029l-1.607,4.464Z" transform="translate(-293.478 -400.142)"/>
        <path id="Path_62" data-name="Path 62" d="M373.219,405.512l-.535-1.487h-2.047l-.523,1.487h-.923l2-5.375h.952l2,5.375Zm-.765-2.241-.5-1.457q-.055-.146-.152-.461t-.134-.462a8.221,8.221,0,0,1-.289.985l-.483,1.4Z" transform="translate(-321.717 -400.075)"/>
        <path id="Path_63" data-name="Path 63" d="M408.5,405.579h-1.014l-1.681-2.424-.516.421v2h-.875v-5.353h.875v2.556q.359-.439.714-.846l1.446-1.71h1q-1.4,1.648-2.01,2.347Z" transform="translate(-348.272 -400.142)"/>
        <path id="Path_64" data-name="Path 64" d="M439.115,405.579h-3.028v-5.353h3.028v.74h-2.153v1.457h2.018v.732h-2.018v1.681h2.153Z" transform="translate(-372.156 -400.142)"/>
        <path id="Path_65" data-name="Path 65" d="M466.168,403.441v2.138h-.875v-5.353h1.512a2.485,2.485,0,0,1,1.534.388,1.394,1.394,0,0,1,.5,1.172,1.465,1.465,0,0,1-1.04,1.424l1.512,2.369h-1l-1.282-2.138Zm0-.725h.608a1.388,1.388,0,0,0,.886-.227.824.824,0,0,0,.275-.674.725.725,0,0,0-.3-.652,1.626,1.626,0,0,0-.893-.2h-.579Z" transform="translate(-394.177 -400.142)"/>
      </g>
    </g>
  </g>
</svg>
