<svg xmlns="http://www.w3.org/2000/svg" xmlns:xlink="http://www.w3.org/1999/xlink" width="124" height="90" viewBox="0 0 124 90">
  <defs>
    <clipPath id="clip-seo">
      <rect width="124" height="90"/>
    </clipPath>
  </defs>
  <g id="seo" clip-path="url(#clip-seo)">
    <rect width="124" height="90" fill="rgba(255,255,255,0)"/>
    <g id="seo-2" data-name="seo" transform="translate(-892.104 -662.5)" style="isolation: isolate">
      <path id="Path_56" data-name="Path 56" d="M1198.023,520.546V504.387a5.36,5.36,0,0,0-5.334-5.387h-85.335a5.36,5.36,0,0,0-5.334,5.387v53.864a5.36,5.36,0,0,0,5.334,5.387h72.315" transform="translate(-196.916 165.5)" fill="none" stroke="#1f9cd8" stroke-linecap="round" stroke-linejoin="round" stroke-width="3"/>
      <line id="Line_9" data-name="Line 9" x1="12.379" transform="translate(934.092 708.11)" fill="none" stroke="#1f9cd8" stroke-linecap="round" stroke-linejoin="round" stroke-width="3"/>
      <path id="Path_57" data-name="Path 57" d="M1160.731,530.369l7.634-9.543,10.592,10.592v13.24h-11.445" transform="translate(-203.801 163.486)" fill="none" stroke="#1f9cd8" stroke-linecap="round" stroke-linejoin="round" stroke-width="3"/>
      <path id="Path_58" data-name="Path 58" d="M1134.212,545.441l10.592-15.889,2.852,1.426" transform="translate(-201.124 162.69)" fill="none" stroke="#1f9cd8" stroke-linecap="round" stroke-linejoin="round" stroke-width="3"/>
      <line id="Line_10" data-name="Line 10" x2="53.865" transform="translate(926.204 750.5)" fill="none" stroke="#1f9cd8" stroke-linecap="round" stroke-linejoin="round" stroke-width="3"/>
      <line id="Line_11" data-name="Line 11" y2="21.546" transform="translate(937.114 728.954)" fill="none" stroke="#1f9cd8" stroke-linecap="round" stroke-linejoin="round" stroke-width="3"/>
      <line id="Line_12" data-name="Line 12" y2="21.546" transform="translate(969.125 728.954)" fill="none" stroke="#1f9cd8" stroke-linecap="round" stroke-linejoin="round" stroke-width="3"/>
      <circle id="Ellipse_2" data-name="Ellipse 2" cx="20.639" cy="20.639" r="20.639" transform="translate(950.031 676.426)" fill="none" stroke="#1f9cd8" stroke-linecap="round" stroke-linejoin="round" stroke-width="3"/>
      <line id="Line_13" data-name="Line 13" x1="17.691" y1="17.691" transform="translate(985.413 711.681)" fill="none" stroke="#1f9cd8" stroke-linecap="round" stroke-linejoin="round" stroke-width="3"/>
    </g>
  </g>
</svg>
