<svg xmlns="http://www.w3.org/2000/svg" xmlns:xlink="http://www.w3.org/1999/xlink" width="184" height="55" viewBox="0 0 184 55">
  <defs>
    <linearGradient id="linear-gradient" y1="0.675" x2="1" y2="0.325" gradientUnits="objectBoundingBox">
      <stop offset="0" stop-color="#fff"/>
      <stop offset="0.203" stop-color="#fff"/>
      <stop offset="0.5" stop-color="#b8b8b8"/>
      <stop offset="0.756" stop-color="#fff"/>
      <stop offset="1" stop-color="#fff"/>
    </linearGradient>
  </defs>
  <g id="SER" transform="translate(-1315 -323)">
    <rect id="Rectangle_51" data-name="Rectangle 51" width="184" height="55" transform="translate(1315 323)" fill="#515151" opacity="0"/>
    <g id="_1_copy" data-name="1 copy" transform="translate(1166.335 -407.255)">
      <g id="icon" transform="translate(220.534 739.871)">
        <g id="Shape_2" data-name="Shape 2" transform="translate(0 1.812)" stroke-linejoin="round" fill="url(#linear-gradient)">
          <path d="M 16.08735847473145 32.4087028503418 C 15.90315818786621 32.35977935791016 15.73321723937988 32.30385208129883 15.57970333099365 32.24135589599609 C 15.41979122161865 32.17626190185547 15.27661514282227 32.10379028320312 15.15397071838379 32.02629852294922 C 15.26635837554932 31.91986274719238 15.39759063720703 31.79862594604492 15.55057334899902 31.66117668151855 C 16.29476356506348 30.99256706237793 17.34013366699219 30.12867736816406 18.65764236450195 29.0935173034668 C 20.58648109436035 27.57807540893555 22.54574394226074 26.1324291229248 23.09749603271484 25.72745704650879 C 23.37532043457031 25.60306358337402 23.58937835693359 25.54036521911621 23.7459831237793 25.50987434387207 C 23.6221809387207 25.64096450805664 23.51312637329102 25.73169898986816 23.49381065368652 25.74752044677734 L 23.47626304626465 25.76112747192383 L 23.44938278198242 25.78351593017578 L 19.51062965393066 29.06443405151367 C 18.34643363952637 29.92155647277832 17.41236877441406 30.8719596862793 16.8304328918457 31.52274703979492 C 16.51616477966309 31.87420272827148 16.26491928100586 32.18193054199219 16.08735847473145 32.4087028503418 Z M 8.676492691040039 28.35290908813477 C 8.56377124786377 28.28372192382812 8.451786994934082 28.20340538024902 8.341412544250488 28.11250686645508 C 8.017971992492676 27.84613037109375 7.816929340362549 27.57538604736328 7.785630702972412 27.53204345703125 L 7.75432300567627 27.48427581787109 L 7.704503059387207 27.42024612426758 C 7.64719295501709 27.34659576416016 7.614963054656982 27.27498626708984 7.60001277923584 27.18805694580078 C 7.578163146972656 27.06102561950684 7.590322971343994 26.88322639465332 7.634232997894287 26.68744659423828 C 7.72333288192749 26.29019737243652 7.985512733459473 25.59885597229004 8.728632926940918 24.56099700927734 C 9.322503089904785 23.7315673828125 10.12223339080811 22.8215160369873 11.10560321807861 21.85612678527832 C 11.97780323028564 20.99985694885254 12.97251319885254 20.12090682983398 14.06213283538818 19.24369621276855 C 15.3621826171875 18.19705581665039 16.66584205627441 17.30398750305176 17.53056335449219 16.73910713195801 C 18.33954620361328 16.21061325073242 18.93317604064941 15.85910987854004 19.0616569519043 15.78372383117676 C 20.42971229553223 15.05406856536865 21.28158569335938 14.90024662017822 21.75632286071777 14.90024662017822 C 21.96060371398926 14.90024662017822 22.13662338256836 14.93013668060303 22.2653636932373 14.98668670654297 C 22.32803535461426 15.0142183303833 22.38139915466309 15.04856300354004 22.42764091491699 15.09122371673584 C 22.37848663330078 15.20429515838623 22.27613258361816 15.4001932144165 22.07065200805664 15.67738628387451 C 21.76327323913574 16.09199714660645 21.1484432220459 16.79031562805176 19.96527290344238 17.76213645935059 C 19.06918334960938 18.49814605712891 18.13973236083984 19.1503963470459 17.51781272888184 19.56795692443848 C 16.8585033416748 20.0106258392334 16.3942928314209 20.29082679748535 16.38968276977539 20.29360580444336 L 16.35516357421875 20.31440734863281 L 16.32063293457031 20.33710670471191 C 12.22395324707031 23.03603744506836 10.24224281311035 25.51387596130371 9.301193237304688 27.11726570129395 C 9.036163330078125 27.56883430480957 8.832586288452148 27.98487854003906 8.676492691040039 28.35290908813477 Z M 3.287723779678345 19.92441940307617 C 3.321903228759766 19.77287483215332 3.362554311752319 19.6192455291748 3.409533023834229 19.46422576904297 C 3.521972894668579 19.09316635131836 3.673332929611206 18.70514678955078 3.859452962875366 18.31086730957031 C 4.224652767181396 17.53713607788086 4.733762741088867 16.71626663208008 5.372703075408936 15.87097644805908 C 6.500732898712158 14.37864685058594 8.032893180847168 12.80397701263428 9.926603317260742 11.1907262802124 C 10.68279266357422 10.54653644561768 11.49774265289307 9.895977020263672 12.3488130569458 9.257116317749023 C 13.0317325592041 8.744476318359375 13.73858261108398 8.238736152648926 14.44974327087402 7.753906726837158 C 15.63347339630127 6.946896553039551 16.44270324707031 6.463366508483887 16.45074272155762 6.458576679229736 L 16.46558380126953 6.449726581573486 L 16.48126220703125 6.440036773681641 C 17.49629211425781 5.810986518859863 18.42798233032227 5.351436614990234 19.25044250488281 5.074146747589111 C 19.83296203613281 4.877766609191895 20.36573219299316 4.773956775665283 20.79111289978027 4.773956775665283 C 20.94581604003906 4.773956775665283 21.08881187438965 4.787981510162354 21.20590782165527 4.814563751220703 C 21.14889144897461 4.910556793212891 21.06170845031738 5.037872314453125 20.9291820526123 5.196816444396973 C 20.6351432800293 5.549496650695801 20.20432281494141 5.951696395874023 19.68328285217285 6.35996675491333 C 18.73562240600586 7.102516651153564 17.78481292724609 7.637076377868652 17.77531242370605 7.642386436462402 L 17.72170257568359 7.672196388244629 L 17.67278289794922 7.703676700592041 C 11.75321769714355 11.4867467880249 9.810755729675293 12.9259557723999 9.585643768310547 13.09525966644287 C 6.335208892822266 15.46359920501709 4.416250228881836 17.92177200317383 3.287723779678345 19.92441940307617 Z M 4.58218240737915 7.251926422119141 C 4.782299995422363 7.008080005645752 4.992816925048828 6.763730525970459 5.213303089141846 6.51944637298584 C 6.030763149261475 5.613706588745117 6.79468297958374 4.920466423034668 7.291593074798584 4.498386383056641 C 8.035377502441406 3.866591930389404 8.391124725341797 3.656623840332031 8.412792205810547 3.64406943321228 L 8.43220329284668 3.633766651153564 L 8.454802513122559 3.621016502380371 C 9.027627944946289 3.297812223434448 9.569972038269043 3.020177125930786 10.07808780670166 2.78981614112854 C 9.260358810424805 3.422139644622803 8.319146156311035 4.161428928375244 7.457522869110107 4.866076469421387 C 6.1868896484375 5.905222415924072 4.962153911590576 6.933103084564209 4.847021102905273 7.029792785644531 C 4.757381439208984 7.103710651397705 4.668800354003906 7.178022861480713 4.58218240737915 7.251926422119141 Z" stroke="none"/>
          <path d="M 17.42093276977539 34.62555694580078 L 17.42083358764648 34.62555694580078 C 16.41055297851562 34.56241607666016 15.53739261627197 34.38350677490234 14.82561302185059 34.09374618530273 C 14.2561731338501 33.86194610595703 13.78814315795898 33.55908584594727 13.43452262878418 33.19357681274414 C 13.11992263793945 32.86837768554688 12.95603275299072 32.55278778076172 12.87395286560059 32.34528732299805 C 12.78501319885254 32.12044525146484 12.77028274536133 31.97060585021973 12.7701530456543 31.96910667419434 C 12.7426233291626 31.9445972442627 12.72974300384521 31.90989685058594 12.73189258575439 31.86601638793945 C 12.74413299560547 31.61544609069824 13.24276256561279 31.04598617553711 14.21391296386719 30.17344665527344 C 14.99080276489258 29.47545623779297 16.0701732635498 28.58300590515137 17.42202377319336 27.52086639404297 C 19.72415351867676 25.71213722229004 22.04866218566895 24.01651573181152 22.07187271118164 23.99959564208984 C 22.77398300170898 23.65684700012207 23.41973304748535 23.48305702209473 23.99124336242676 23.48305702209473 C 24.49971389770508 23.48305702209473 24.85400390625 23.62349700927734 25.06168365478516 23.7413272857666 C 25.28617286682129 23.86868667602539 25.392822265625 23.99830627441406 25.39387321472168 23.99959564208984 C 25.82783317565918 24.35204696655273 26.04504203796387 24.7620964050293 26.03945350646973 25.21833610534668 C 26.0363826751709 25.4693660736084 25.96560287475586 25.73604583740234 25.82909202575684 26.01100730895996 C 25.71987342834473 26.23097610473633 25.56858253479004 26.45671653747559 25.37940216064453 26.68194580078125 C 25.0588321685791 27.06359672546387 24.7326831817627 27.31770706176758 24.72943305969238 27.32022666931152 L 20.74300384521484 30.64085578918457 C 19.69520378112793 31.40499687194824 18.84773254394531 32.26718521118164 18.32130241394043 32.85589599609375 C 17.74926376342773 33.49563598632812 17.42415237426758 33.95687484741211 17.42093276977539 33.96146774291992 L 17.42093276977539 34.62555694580078 Z M 9.693222999572754 30.66423606872559 L 9.693102836608887 30.66423606872559 C 9.182303428649902 30.66421699523926 8.676953315734863 30.55823707580566 8.191112518310547 30.34924697875977 C 7.802433013916016 30.18206596374512 7.425222873687744 29.94891738891602 7.069962978363037 29.65633583068848 C 6.464832782745361 29.15796661376953 6.129393100738525 28.6535472869873 6.126082897186279 28.64849662780762 C 5.866902828216553 28.31542587280273 5.699653148651123 27.9381275177002 5.628952980041504 27.52705574035645 C 5.561933040618896 27.13733673095703 5.580022811889648 26.70755577087402 5.682733058929443 26.24968719482422 C 5.871303081512451 25.4089469909668 6.348982810974121 24.44904708862305 7.102482795715332 23.39667701721191 C 7.76343297958374 22.47356605529785 8.638873100280762 21.47506713867188 9.704492568969727 20.42892646789551 C 10.62327289581299 19.52692604064941 11.66742324829102 18.60400581359863 12.80793285369873 17.68581581115723 C 14.17191314697266 16.58770561218262 15.53415298461914 15.65434646606445 16.43674278259277 15.06471633911133 C 17.40786361694336 14.43030643463135 18.07869338989258 14.04165649414062 18.08535385131836 14.03780651092529 C 19.49200248718262 13.2829761505127 20.72709274291992 12.90024662017822 21.75632286071777 12.90024662017822 C 22.24218368530273 12.90024662017822 22.68406295776367 12.98615646362305 23.06972312927246 13.15556621551514 C 23.37821388244629 13.29108619689941 23.65163230895996 13.48006629943848 23.88237380981445 13.71724700927734 C 24.27438354492188 14.12021636962891 24.40955352783203 14.53013610839844 24.41087341308594 14.5342264175415 C 24.51223373413086 14.86390686035156 24.4933032989502 15.23904609680176 24.3546028137207 15.6492166519165 C 24.22851371765137 16.02209663391113 24.00064277648926 16.43228721618652 23.67734336853027 16.86841583251953 C 23.13280296325684 17.60292625427246 22.31099319458008 18.42359733581543 21.23469352722168 19.30763626098633 C 20.27710342407227 20.09416580200195 19.29115295410156 20.78629684448242 18.63265228271484 21.22841644287109 C 17.92065238952637 21.70646667480469 17.42584228515625 22.00428581237793 17.42093276977539 22.00723648071289 C 13.64563274383545 24.49443626403809 11.85957336425781 26.70944595336914 11.0260534286499 28.12961578369141 C 10.55411338806152 28.93373680114746 10.33087253570557 29.57368659973145 10.22669315338135 29.96893692016602 C 10.11380290985107 30.39723587036133 10.11250305175781 30.63846588134766 10.11250305175781 30.64084625244141 C 9.972373008728027 30.65641593933105 9.831342697143555 30.66423606872559 9.693222999572754 30.66423606872559 Z M 3.468422889709473 25.99196624755859 L 3.468262910842896 25.99180603027344 C 3.008612871170044 25.55723571777344 2.612112998962402 25.09943580627441 2.289783000946045 24.63110733032227 C 1.97877299785614 24.17923736572266 1.728433012962341 23.70536613464355 1.545682907104492 23.22266578674316 C 1.3697429895401 22.7579460144043 1.251702904701233 22.27249717712402 1.194862961769104 21.77982711791992 C 1.140262961387634 21.30661582946777 1.140653014183044 20.81404685974121 1.196002960205078 20.31577682495117 C 1.247622966766357 19.85128593444824 1.348382949829102 19.36962699890137 1.495492935180664 18.88418579101562 C 1.636192917823792 18.41984748840332 1.823032975196838 17.939697265625 2.050832986831665 17.45711708068848 C 2.474632978439331 16.55922698974609 3.055472850799561 15.6198263168335 3.777212858200073 14.6649866104126 C 4.992793083190918 13.0568265914917 6.625382900238037 11.37568664550781 8.629632949829102 9.668276786804199 C 9.41700267791748 8.997516632080078 10.26435279846191 8.321036338806152 11.14815330505371 7.65761661529541 C 11.85523319244385 7.126836776733398 12.58701324462891 6.603246688842773 13.3231725692749 6.101386547088623 C 14.57458305358887 5.248226642608643 15.41931343078613 4.745016574859619 15.42771339416504 4.740026473999023 C 16.57283210754395 4.030356407165527 17.64401245117188 3.505136489868164 18.61148262023926 3.178956508636475 C 19.40862274169922 2.910226583480835 20.14195251464844 2.773956537246704 20.79111289978027 2.773956537246704 C 21.11227226257324 2.773956537246704 21.41437339782715 2.807486534118652 21.68903350830078 2.873626470565796 C 21.90877342224121 2.926536560058594 22.11152267456055 3.000306606292725 22.29166221618652 3.092896461486816 C 22.59754371643066 3.250106573104858 22.73488235473633 3.410246610641479 22.7362232208252 3.41184663772583 C 22.96277236938477 3.628226518630981 23.12379264831543 3.864356517791748 23.21479225158691 4.113636493682861 C 23.29970359802246 4.346226692199707 23.32580375671387 4.596056461334229 23.29238319396973 4.856186389923096 C 23.22897338867188 5.349906444549561 22.95069313049316 5.895416736602783 22.46529388427734 6.47758674621582 C 22.07701301574707 6.943296432495117 21.55602264404297 7.433396339416504 20.91682243347168 7.93424654006958 C 19.82792282104492 8.787476539611816 18.76044273376465 9.38300609588623 18.74979209899902 9.38892650604248 C 12.62414264678955 13.30369663238525 10.79461288452148 14.68837642669678 10.77684307098389 14.70190620422363 C 6.887123107910156 17.53219604492188 5.107172966003418 20.45120620727539 4.298923015594482 22.40156745910645 C 3.841322898864746 23.50580596923828 3.639883041381836 24.4232063293457 3.551472902297974 24.99836730957031 C 3.45667290687561 25.61517715454102 3.46789288520813 25.97663688659668 3.46841287612915 25.99172592163086 L 3.468422889709473 25.99196624755859 Z M 1.475122928619385 16.69426727294922 L 1.474932909011841 16.69403648376465 C 1.137583017349243 16.29986572265625 0.8542829751968384 15.88260650634766 0.6329329609870911 15.45384693145752 C 0.4213029742240906 15.04389667510986 0.2607229650020599 14.6126766204834 0.155642956495285 14.17215633392334 C 0.05551296100020409 13.75236701965332 0.003202959662303329 13.31324672698975 0.0001429596013622358 12.86697673797607 C -0.002747040474787354 12.44317626953125 0.03870296105742455 12.00212669372559 0.1233429610729218 11.55608654022217 C 0.327832967042923 10.47854614257812 0.7892929315567017 9.333876609802246 1.494922995567322 8.153846740722656 C 2.08236289024353 7.17146635055542 2.833883047103882 6.170716762542725 3.728612899780273 5.179406642913818 C 4.619422912597656 4.192396640777588 5.453763008117676 3.435336589813232 5.996832847595215 2.974056482315063 C 6.71884298324585 2.360756635665894 7.232263088226318 2.006336450576782 7.471992969512939 1.879156589508057 C 8.726622581481934 1.171256542205811 9.869732856750488 0.6542565822601318 10.86958312988281 0.3425165712833405 C 11.59855270385742 0.1152365654706955 12.23748302459717 -3.434448217376485e-06 12.76862335205078 -3.434448217376485e-06 C 13.22768306732178 -3.434448217376485e-06 13.43247318267822 0.09031656384468079 13.43449306488037 0.09122656285762787 C 14.0664234161377 0.311566561460495 14.41892337799072 0.6228665709495544 14.48223304748535 1.016496539115906 C 14.51250267028809 1.204826593399048 14.47627258300781 1.413016557693481 14.3745231628418 1.635306596755981 C 14.29313278198242 1.813136577606201 14.16986274719238 2.000336647033691 14.00814342498779 2.191696643829346 C 13.73287296295166 2.517426490783691 13.43744277954102 2.745406627655029 13.43449306488037 2.747666597366333 C 13.40867328643799 2.766926527023315 10.8285026550293 4.692906379699707 8.723652839660645 6.414276599884033 C 7.404033184051514 7.493486404418945 6.138702869415283 8.556746482849121 6.126072883605957 8.567356109619141 C 3.523362874984741 10.71150684356689 2.397413015365601 12.8070068359375 1.911172986030579 14.18734645843506 C 1.635872960090637 14.96887683868408 1.531983017921448 15.60886669158936 1.493312954902649 16.00812721252441 C 1.451942920684814 16.43502616882324 1.474142909049988 16.68359565734863 1.47510290145874 16.69396591186523 L 1.475122928619385 16.69426727294922 Z" stroke="none" fill="#8f9294"/>
        </g>
        <path id="Shape_1" data-name="Shape 1" d="M955.828,868.082c10.825,0,19.6-7.512,19.6-18.332s-8.618-18.489-19.442-18.489a19.714,19.714,0,0,0-3.753.359l.436,1.489a16.937,16.937,0,1,1,3.16,33.576C955.794,866.685,955.828,868.082,955.828,868.082Z" transform="translate(-936.746 -831.261)" fill="#0072bd"/>
      </g>
      <path id="Rep" d="M43.412,25.821l-2.978.108.215-3.981q0-1.614.126-4.68t.126-3.963V7.926L40.47.144l2.619.108L46.713.108,49.332,0a8.647,8.647,0,0,1,5.92,1.9A6.6,6.6,0,0,1,57.4,7.12a6.9,6.9,0,0,1-2.691,5.8q-2.691,2.075-7.534,2.075H45.851v3.12q0,1.148.179,3.837t.179,3.981Zm2.44-13.341,1,.036a5.1,5.1,0,0,0,3.821-1.345,5.408,5.408,0,0,0,1.31-3.927,5.031,5.031,0,0,0-1.13-3.712,5.344,5.344,0,0,0-3.785-1.094h-1.22ZM32.057,25.905l-3.032-.048H25.4l-3.337.072.251-3.981q0-1.757.09-4.9T22.5,13.2V7.926q0-1.506-.087-2.618Q22.1,1.363,22.1.108l1.686.072,5.346.108q1.04,0,3.337-.09t3.624-.09l-.036,1.255.072,1.686q-1.586,0-3.387-.09t-2.666-.09H27.482v8.392h1.766q2.99,0,3.6-.036,1.657-.179,2.775-.287l-.108,1.542.072,1.435q-1.465,0-3.286-.108T29.375,13.7H27.518l-.036,5.022v4.553h1.076q1.471,0,2.583-.087,3.91-.307,4.987-.307l-.072,1.578.036,1.47Q33.617,25.929,32.057,25.905Zm-15.409-.084-3.552.108q-1.364-2.4-1.722-3.048-1.113-1.864-2.44-3.837Q8,17.717,7.391,16.891q-.826-1.111-1.973-2.51v3.73q0,.968.144,3.73T5.7,25.929l-2.87-.108L0,25.929l.179-3.945q0-1.362.108-4.375t.108-4.59V7.926L.036.108,2.583.251,5.92.108,8.611,0a9.417,9.417,0,0,1,6.1,1.829,5.993,5.993,0,0,1,2.26,4.913,6.582,6.582,0,0,1-.987,3.461,6.122,6.122,0,0,1-2.637,2.421,10.976,10.976,0,0,1-2.8.789l.646.968q1.112,1.721,3.121,4.375,1.757,2.332,3.229,4.124,1.255,1.506,2.583,3.048ZM5.418,2.654v9.432l1.292.108q4.951,0,4.951-4.985,0-4.7-4.485-4.7A12.146,12.146,0,0,0,5.418,2.654Z" transform="translate(161.553 745.668)" fill="#2961a8"/>
      <path id="rts" d="M40.9,24.638l.682-2.116q.108-.5.233-1t.233-1.219l.395-.179q1.83,3.981,5.382,3.981a4.423,4.423,0,0,0,3.157-1.183,3.877,3.877,0,0,0,1.256-2.941q0-2.546-2.834-3.909L46.21,14.524Q41.474,12.3,41.474,7.6a6.923,6.923,0,0,1,2.44-5.487A9.4,9.4,0,0,1,50.3,0a10.674,10.674,0,0,1,6.279,1.937q-.288.538-.484.986t-.3.7q-.108.251-.395,1.148-.215.538-.323.9h-.395Q53.027,2.4,49.977,2.4a3.859,3.859,0,0,0-2.8,1.04A3.531,3.531,0,0,0,46.1,6.1q0,2.188,2.691,3.515l2.942,1.47a11.617,11.617,0,0,1,4.054,2.977A6.294,6.294,0,0,1,56.974,18a7.913,7.913,0,0,1-2.619,6.1,9.537,9.537,0,0,1-6.709,2.4A13.559,13.559,0,0,1,40.9,24.638ZM29.671,26.072l-2.727.108.215-3.9q0-1.752.09-5.4t.09-5.327V3.586H23.391q-1.522.144-2.029.179t-1.63.215L19.8,1.506V.359q2.368,0,4.754.054t5.22.09Q31.464.5,34.927.43t4.9-.072l-.072,1.614.108,2.008-2.583-.359q-.359-.035-1.363-.036-.574,0-1.794-.072T32.4,3.443q0,1.9-.054,3.891t-.09,4.214L32.4,18.4l.251,7.782Zm-13.023,0L13.1,26.18q-1.364-2.4-1.722-3.048-1.113-1.864-2.44-3.837Q8,17.968,7.391,17.142q-.826-1.111-1.973-2.51v3.73q0,.968.143,3.73T5.7,26.18l-2.87-.108L0,26.18l.179-3.945q0-1.362.108-4.375t.108-4.59V8.177L.036.359,2.583.5,5.92.359,8.611.251a9.416,9.416,0,0,1,6.1,1.829,5.993,5.993,0,0,1,2.26,4.913,6.582,6.582,0,0,1-.987,3.461,6.122,6.122,0,0,1-2.637,2.421,10.976,10.976,0,0,1-2.8.789l.646.968q1.112,1.721,3.121,4.375,1.757,2.332,3.229,4.124,1.255,1.506,2.583,3.048ZM5.418,2.9v9.432l1.292.108q4.951,0,4.951-4.985,0-4.7-4.485-4.7A12.145,12.145,0,0,0,5.418,2.9Z" transform="translate(263.872 745.417)" fill="#2961a8"/>
      <path id="SEARCH" d="M38.22,10.609a5.909,5.909,0,0,1-1.744-4.466,5.866,5.866,0,0,1,1.752-4.458A6.476,6.476,0,0,1,42.887.017a8.034,8.034,0,0,1,2.276.332q.415.133.731.266t.847.415q-.067.266-.133.556t-.1.506q-.033.216-.066.465a3.29,3.29,0,0,0-.033.432l-.183.05A3.882,3.882,0,0,0,42.821,1.1a3.276,3.276,0,0,0-2.807,1.362,6.368,6.368,0,0,0-1,3.819A5.511,5.511,0,0,0,40.1,9.871a3.614,3.614,0,0,0,2.957,1.32,3.874,3.874,0,0,0,1.769-.382,6.237,6.237,0,0,0,1.669-1.378l.15.066q-.067.3-.083.432t-.083.581a5.183,5.183,0,0,0-.066.589v.307l-.6.3a7.194,7.194,0,0,1-2.973.581A6.382,6.382,0,0,1,38.22,10.609ZM0,11.406l.316-.98q.05-.232.108-.465T.531,9.4l.183-.083a2.689,2.689,0,0,0,2.492,1.843,2.048,2.048,0,0,0,1.462-.548,1.8,1.8,0,0,0,.581-1.362,1.971,1.971,0,0,0-1.312-1.81L2.458,6.724A3.372,3.372,0,0,1,.266,3.52,3.205,3.205,0,0,1,1.4.98,4.351,4.351,0,0,1,4.352,0,4.942,4.942,0,0,1,7.259.9q-.133.249-.224.457t-.141.324q-.05.116-.183.531-.1.249-.15.415H6.378A2.373,2.373,0,0,0,4.2,1.112a1.787,1.787,0,0,0-1.3.482,1.635,1.635,0,0,0-.5,1.229A1.842,1.842,0,0,0,3.654,4.45l1.362.681A5.378,5.378,0,0,1,6.893,6.508a2.914,2.914,0,0,1,.548,1.826,3.664,3.664,0,0,1-1.213,2.823A4.416,4.416,0,0,1,3.123,12.27,6.276,6.276,0,0,1,0,11.406Zm57.13.7-.606-.033q-.432,0-.747.017l-.6.033.133-1.826q0-.435.033-1.541t.033-1.189V6.475h-5.05V8.469q0,.419.116,2.06.066.938.066,1.591-.432,0-.739-.017l-.606-.033q-.432,0-.747.017l-.6.033.083-1.843q0-.78.041-2.175t.042-1.71V3.769L47.82.183q.332,0,.656.025t.706.041q.183,0,.581-.033t.747-.033q0,.861-.05,1.555-.133,1.853-.133,2.035V5.147l2.533.033h2.516V3.8q0-.416-.1-1.7t-.1-1.916q.332,0,.731.033t.6.033q.216,0,.689-.033t.673-.033l-.083,1.727q0,.747-.033,2.573T57.72,6.425V8.517q0,.4.075,1.677t.075,1.926Q57.437,12.12,57.13,12.1ZM35.28,12.07l-1.644.05q-.631-1.112-.8-1.411-.515-.863-1.129-1.777-.432-.614-.714-1-.382-.514-.913-1.162V8.5q0,.448.066,1.727t.066,1.893l-1.329-.05-1.312.05.083-1.826q0-.631.05-2.026t.05-2.125V3.786L27.589.166l1.179.066L30.313.166l1.246-.05a4.359,4.359,0,0,1,2.824.847,2.775,2.775,0,0,1,1.046,2.275,3.047,3.047,0,0,1-.457,1.6,2.834,2.834,0,0,1-1.221,1.121,5.08,5.08,0,0,1-1.3.365l.3.448q.515.8,1.445,2.026.814,1.079,1.495,1.909.581.7,1.2,1.411Zm-5.2-10.726V5.711l.6.05a2.033,2.033,0,0,0,2.292-2.308q0-2.175-2.076-2.175A5.62,5.62,0,0,0,30.081,1.345ZM25.563,12.07l-1.495.05-.449-1.567q-.05-.217-.415-1.351-.2-.667-.332-1.05H18.719q-.316.77-.448,1.088-.349.871-.532,1.373l-.515,1.507-.847-.05-.83.05.648-1.278q.764-1.577,2.06-4.666.382-.913,1.3-3.188.78-1.909.914-2.291l.2-.531q.664.067,1.063.066h.249a6.029,6.029,0,0,0,.8-.066L22.955.8q.5,1.66.93,2.955.216.647.831,2.424,1.063,3.022,1.661,4.433l.664,1.511ZM19.2,6.924l1.678.033h1.628L21.012,2.623Zm-5.656,5.186-1.4-.022H10.464L8.92,12.12l.116-1.843q0-.813.042-2.266t.042-1.785V3.786q0-.7-.041-1.212Q8.936.747,8.936.166L9.717.2l2.475.05q.482,0,1.545-.041T15.414.166L15.4.747l.033.78q-.734,0-1.568-.042t-1.234-.041h-1.2V5.33h.818q1.384,0,1.668-.017.767-.083,1.285-.133l-.05.714.033.664q-.678,0-1.521-.05T12.3,6.459h-.86l-.017,2.325v2.108h.5q.681,0,1.2-.04,1.81-.142,2.309-.142l-.033.731.017.681Q14.268,12.12,13.546,12.109Z" transform="translate(160.664 730.255)" fill="#010101"/>
      <path id="ENGINE" d="M21.012,10.692a5.512,5.512,0,0,1-1.728-4.284,6.175,6.175,0,0,1,1.822-4.641A6.576,6.576,0,0,1,25.889,0a8.635,8.635,0,0,1,4.225,1.079l-.289.863-.221.913-.187.05-.332-.465a3.881,3.881,0,0,0-1.412-1.013A4.446,4.446,0,0,0,25.9,1.063,3.663,3.663,0,0,0,22.839,2.49a6.251,6.251,0,0,0-1.113,3.935A5.49,5.49,0,0,0,22.781,10,3.563,3.563,0,0,0,25.7,11.29a5.867,5.867,0,0,0,1.943-.349l.033-1.694q0-.448-.017-1.378t-.017-1.229l1.164.033q.3,0,.738-.025t.574-.025q0,.6-.05,1.328t-.05,1.112q0,.548.017.814.083,1.328.083,1.644A13.908,13.908,0,0,1,27.9,12.1a13.673,13.673,0,0,1-2.218.166A6.656,6.656,0,0,1,21.012,10.692ZM52.6,12.109l-1.4-.022H49.514l-1.545.033.116-1.843q0-.813.041-2.266t.042-1.785V3.786q0-.7-.041-1.212Q47.986.747,47.986.166L48.767.2l2.475.05q.482,0,1.545-.041T54.464.166l-.017.581.033.78q-.734,0-1.568-.042t-1.234-.041h-1.2V5.33H51.3q1.384,0,1.668-.017.767-.083,1.285-.133l-.05.714.033.664q-.678,0-1.521-.05t-1.356-.05h-.86l-.017,2.325v2.108h.5q.681,0,1.2-.04,1.81-.142,2.309-.142l-.033.731.017.681Q53.318,12.12,52.6,12.109Zm-7.3-.022-.779.033L41.053,7.837l-2.918-3.4-.613-.7V7.87l.066,4.25-.706-.033-.673.033.066-2.026q0-.681.033-2.341t.033-1.76V3.752L36.16.166l.782.05.832-.05q.632.814,1.265,1.61.815,1.013,1.6,1.976l2.646,3.088L44.814,8.6V3.736l-.1-3.57L45.437.2l.706-.033-.066,1.843q0,.631-.033,2.192T46.01,5.977V7.853q0,.83.033,2.192t.033,2.075ZM33.12,12.07l-1.379.05.1-1.81q0-.648.058-2.067t.058-1.967l-.033-2.49-.183-3.6q.315,0,.64.025t.706.041q.232,0,.706-.033t.656-.033l-.1,1.743q0,.747-.033,1.66-.083,2.275-.083,2.856l.033,2.075q0,.515.083,1.76t.083,1.843Zm-16.143.017-.779.033L12.733,7.837l-2.918-3.4-.613-.7V7.87l.066,4.25-.706-.033-.673.033.066-2.026q0-.681.033-2.341t.033-1.76V3.752L7.84.166l.782.05.832-.05q.632.814,1.265,1.61.815,1.013,1.6,1.976l2.646,3.088L16.494,8.6V3.736l-.1-3.57L17.117.2l.706-.033-.066,1.843q0,.631-.033,2.192T17.69,5.977V7.853q0,.83.033,2.192t.033,2.075Zm-12.351.022-1.4-.022H1.545L0,12.12l.116-1.843q0-.813.042-2.266T.2,6.226V3.786q0-.7-.04-1.212Q.016.747.017.166L.8.2l2.475.05q.482,0,1.545-.041T6.495.166L6.478.747l.033.78q-.734,0-1.568-.042T3.709,1.445h-1.2V5.33h.818q1.384,0,1.668-.017.767-.083,1.285-.133l-.05.714.033.664q-.678,0-1.521-.05t-1.356-.05h-.86L2.508,8.784v2.108h.5q.681,0,1.2-.04,1.81-.142,2.309-.142l-.033.731.017.681Q5.348,12.12,4.626,12.109Z" transform="translate(261.538 730.255)" fill="#010101"/>
      <path id="_.net" data-name=".net" d="M15.156,10.676a4.074,4.074,0,0,1-.64-3.437A5.88,5.88,0,0,1,16.3,3.819a4.823,4.823,0,0,1,3.384-1.3,3.1,3.1,0,0,1,2.627,1.112,3.713,3.713,0,0,1,.516,3.005c-.022.122-.044.232-.067.332s-.072.266-.146.5q-.785,0-1.682-.033T19.6,7.4q-.468,0-1.443.033t-1.309.033l-.026.149a3.009,3.009,0,0,0,.32,2.258,1.968,1.968,0,0,0,1.756.847,4.441,4.441,0,0,0,1.666-.349,4.247,4.247,0,0,0,.677-.332q.263-.166.748-.548l.123.149-.23.407q-.061.108-.25.523l-.207.515a5.907,5.907,0,0,1-1.451.647,6.167,6.167,0,0,1-1.6.183A3.933,3.933,0,0,1,15.156,10.676Zm2.789-6.392a4.294,4.294,0,0,0-.9,2.092l1.243.017,1.487-.05h.88l.017-.1a3.569,3.569,0,0,0-.1-2,1.116,1.116,0,0,0-1.1-.739A1.981,1.981,0,0,0,17.945,4.284ZM.247,11.531a1.1,1.1,0,0,1-.225-.938A1.59,1.59,0,0,1,.574,9.63a1.525,1.525,0,0,1,1.014-.382,1.1,1.1,0,0,1,.9.382,1.134,1.134,0,0,1,.212.963,1.565,1.565,0,0,1-.556.938,1.544,1.544,0,0,1-1.024.39A1.069,1.069,0,0,1,.247,11.531Zm24.115-.215A1.834,1.834,0,0,1,24,9.668l.465-2.353.6-3.38-.391.05h-.88l.165-.841.08-.454a5.409,5.409,0,0,0,1.222.133A18.327,18.327,0,0,0,25.47.985q.4-.1.681-.192T26.77.585q.586-.217.767-.3Q27.9.1,28.119,0l-.361,1.478-.3,1.345q.714,0,.966-.017l1.05-.116-.167.664-.078.631q-.49,0-.748-.017-1-.066-1.147-.066l-.615,3.487q-.375,2.125-.381,2.441-.031.93.849.93a1.723,1.723,0,0,0,.468-.066,3.39,3.39,0,0,0,.545-.216q-.01.432-.008.515a2.835,2.835,0,0,0,.066.382,5.273,5.273,0,0,1-1.078.415,4.642,4.642,0,0,1-1.092.116A2.246,2.246,0,0,1,24.363,11.316Zm-13.4.372-1.271.05q.173-.979.366-1.793.516-2.175.534-2.275l.138-.78.173-.98a2.531,2.531,0,0,0,0-1.245,1.168,1.168,0,0,0-1.253-.714A2.107,2.107,0,0,0,8.1,4.632a3.334,3.334,0,0,0-.867,1.81L7.1,7.189,6.975,7.9q-.088.5-.227,1.66t-.317,2.175l-1.262-.05-1.246.05q.181-1.029.369-1.86.5-2.225.545-2.474l.155-.88q.128-.73.192-1.278.22-1.909.326-2.507.309.033.672.05t.6.017h.664q.324-.05.527-.066-.078.282-.17.648t-.139.631a4.625,4.625,0,0,1,.424-.44q.2-.174.423-.34a3.792,3.792,0,0,1,2.19-.714,2.5,2.5,0,0,1,2.05.83,2.618,2.618,0,0,1,.436,2.208l-.158.9-.138.78-.012.066-.108.614q-.118.664-.255,1.777t-.3,2.042Z" transform="translate(287.248 771.813)" fill="#333"/>
      <rect id="Rectangle_1" data-name="Rectangle 1" width="29.898" height="0.664" transform="translate(286.456 784.591)" fill="#2961a8"/>
    </g>
  </g>
</svg>
