<svg xmlns="http://www.w3.org/2000/svg" xmlns:xlink="http://www.w3.org/1999/xlink" width="124" height="90" viewBox="0 0 124 90">
  <defs>
    <clipPath id="clip-w-d">
      <rect width="124" height="90"/>
    </clipPath>
  </defs>
  <g id="w-d" clip-path="url(#clip-w-d)">
    <rect width="124" height="90" fill="rgba(255,255,255,0)"/>
    <g id="w-d-2" data-name="w-d" transform="translate(-915 -234)" style="isolation: isolate">
      <g id="Group_32" data-name="Group 32" transform="translate(933 236)">
        <g id="Group_30" data-name="Group 30">
          <path id="Path_71" data-name="Path 71" d="M689.588,555.668h-36.2a4.887,4.887,0,0,1-4.857-4.917V481.916A4.887,4.887,0,0,1,653.39,477h67.99a4.887,4.887,0,0,1,4.856,4.916v33.929" transform="translate(-648.533 -477)" fill="none" stroke="#1f9cd8" stroke-linecap="round" stroke-linejoin="round" stroke-width="3"/>
          <line id="Line_31" data-name="Line 31" x2="77.703" transform="translate(0 19.667)" fill="none" stroke="#1f9cd8" stroke-linecap="round" stroke-linejoin="round" stroke-width="3"/>
          <line id="Line_32" data-name="Line 32" y2="19.603" transform="translate(19.426)" fill="none" stroke="#1f9cd8" stroke-linecap="round" stroke-linejoin="round" stroke-width="3"/>
        </g>
        <g id="Group_31" data-name="Group 31" transform="translate(39.7 37.7)">
          <path id="Path_72" data-name="Path 72" d="M711.355,520.534a4.626,4.626,0,0,1,8.99,0,4.625,4.625,0,0,0,6.9,2.861,4.628,4.628,0,0,1,6.36,6.36,4.625,4.625,0,0,0,2.858,6.9,4.626,4.626,0,0,1,0,8.99,4.625,4.625,0,0,0-2.861,6.9,4.628,4.628,0,0,1-6.36,6.359,4.625,4.625,0,0,0-6.9,2.858,4.626,4.626,0,0,1-8.99,0,4.625,4.625,0,0,0-6.9-2.861,4.628,4.628,0,0,1-6.36-6.36,4.625,4.625,0,0,0-2.858-6.9,4.626,4.626,0,0,1,0-8.99,4.625,4.625,0,0,0,2.861-6.9,4.628,4.628,0,0,1,6.36-6.36A4.622,4.622,0,0,0,711.355,520.534Z" transform="translate(-691.7 -517)" fill="none" stroke="#1f9cd8" stroke-linecap="round" stroke-linejoin="round" stroke-width="3"/>
          <circle id="Ellipse_6" data-name="Ellipse 6" cx="8.05" cy="8.05" r="8.05" transform="translate(16.1 16.1)" fill="none" stroke="#1f9cd8" stroke-linecap="round" stroke-linejoin="round" stroke-width="3"/>
        </g>
      </g>
      <g id="Group_33" data-name="Group 33" transform="translate(972.7 273.7)">
        <path id="Path_73" data-name="Path 73" d="M711.355,520.534a4.626,4.626,0,0,1,8.99,0,4.625,4.625,0,0,0,6.9,2.861,4.628,4.628,0,0,1,6.36,6.36,4.625,4.625,0,0,0,2.858,6.9,4.626,4.626,0,0,1,0,8.99,4.625,4.625,0,0,0-2.861,6.9,4.628,4.628,0,0,1-6.36,6.359,4.625,4.625,0,0,0-6.9,2.858,4.626,4.626,0,0,1-8.99,0,4.625,4.625,0,0,0-6.9-2.861,4.628,4.628,0,0,1-6.36-6.36,4.625,4.625,0,0,0-2.858-6.9,4.626,4.626,0,0,1,0-8.99,4.625,4.625,0,0,0,2.861-6.9,4.628,4.628,0,0,1,6.36-6.36A4.622,4.622,0,0,0,711.355,520.534Z" transform="translate(-691.7 -517)" fill="none" stroke="#1f9cd8" stroke-linecap="round" stroke-linejoin="round" stroke-width="3"/>
        <circle id="Ellipse_7" data-name="Ellipse 7" cx="8.05" cy="8.05" r="8.05" transform="translate(16.1 16.1)" fill="none" stroke="#1f9cd8" stroke-linecap="round" stroke-linejoin="round" stroke-width="3"/>
      </g>
      <rect id="Rectangle_11" data-name="Rectangle 11" width="19.657" height="19.657" transform="translate(945.138 267.48)" fill="none" stroke="#1f9cd8" stroke-linecap="round" stroke-linejoin="round" stroke-width="3"/>
    </g>
  </g>
</svg>
